<svg width="24" height="18" viewBox="0 0 24 18" fill="none" xmlns="http://www.w3.org/2000/svg">
<path d="M22.5 18H1.50001C0.671548 18 0 17.3284 0 16.5C0 15.6716 0.671548 15 1.50001 15H22.5C23.3285 15 24.0001 15.6716 24.0001 16.5C24 17.3284 23.3285 18 22.5 18Z" fill="white"/>
<path d="M22.5 10.5H1.50001C0.671548 10.5 0 9.82842 0 9.00001C0 8.1716 0.671548 7.5 1.50001 7.5H22.5C23.3285 7.5 24.0001 8.17155 24.0001 9.00001C24.0001 9.82847 23.3285 10.5 22.5 10.5Z" fill="white"/>
<path d="M22.5 2.99996H1.50001C0.671548 2.99996 0 2.32841 0 1.49995C0 0.671487 0.671548 -6.10352e-05 1.50001 -6.10352e-05H22.5C23.3285 -6.10352e-05 24.0001 0.671487 24.0001 1.49995C24.0001 2.32841 23.3285 2.99996 22.5 2.99996Z" fill="white"/>
</svg>
