<svg width="20" height="20" viewBox="0 0 20 20" fill="none" xmlns="http://www.w3.org/2000/svg">
<path d="M9.92243 3.03264L0.937818 6.81563C0.774633 6.88434 0.774633 7.11558 0.937818 7.18429L9.92243 10.9673C9.97206 10.9882 10.028 10.9882 10.0776 10.9673L19.0622 7.18429C19.2254 7.11558 19.2254 6.88434 19.0622 6.81563L10.0776 3.03264C10.028 3.01174 9.97206 3.01174 9.92243 3.03264Z" stroke="#C6711A" stroke-width="1.5"/>
<path d="M4.24316 8.81055V11.9992C4.24316 14.2083 6.03402 15.9992 8.24316 15.9992H11.5626C13.7718 15.9992 15.5626 14.2083 15.5626 11.9992V8.99916" stroke="#C6711A" stroke-width="1.5"/>
<path d="M17.7285 8V15.5" stroke="#C6711A" stroke-width="1.4"/>
<path d="M17.7286 16.0992C18.1091 16.0992 18.4176 15.7858 18.4176 15.3992C18.4176 15.0126 18.1091 14.6992 17.7286 14.6992C17.348 14.6992 17.0396 15.0126 17.0396 15.3992C17.0396 15.7858 17.348 16.0992 17.7286 16.0992Z" fill="#C6711A"/>
<path d="M18.0899 7.79887L9.90381 6.77771" stroke="#C6711A" stroke-width="1.4"/>
<path d="M9.24879 6.69557C9.20242 7.07929 9.5069 7.43302 9.92886 7.48566C10.3508 7.5383 10.7305 7.26991 10.7769 6.88619C10.8232 6.50247 10.5188 6.14874 10.0968 6.0961C9.67484 6.04346 9.29517 6.31185 9.24879 6.69557Z" fill="#C6711A"/>
</svg>
